<mxfile host="app.diagrams.net" agent="Mozilla/5.0 (Windows NT 10.0; Win64; x64; rv:138.0) Gecko/20100101 Firefox/138.0" version="26.2.14">
  <diagram id="C5RBs43oDa-KdzZeNtuy" name="Page-1">
    <mxGraphModel dx="1554" dy="831" grid="1" gridSize="10" guides="1" tooltips="1" connect="1" arrows="1" fold="1" page="1" pageScale="1" pageWidth="827" pageHeight="1169" math="0" shadow="0">
      <root>
        <mxCell id="WIyWlLk6GJQsqaUBKTNV-0" />
        <mxCell id="WIyWlLk6GJQsqaUBKTNV-1" parent="WIyWlLk6GJQsqaUBKTNV-0" />
        <mxCell id="x1WwE9KoJjIle77bkikw-33" style="edgeStyle=orthogonalEdgeStyle;rounded=0;orthogonalLoop=1;jettySize=auto;html=1;entryX=0.5;entryY=0;entryDx=0;entryDy=0;" parent="WIyWlLk6GJQsqaUBKTNV-1" source="WIyWlLk6GJQsqaUBKTNV-3" target="x1WwE9KoJjIle77bkikw-32" edge="1">
          <mxGeometry relative="1" as="geometry" />
        </mxCell>
        <mxCell id="WIyWlLk6GJQsqaUBKTNV-3" value="Start Pathfinding" style="rounded=1;whiteSpace=wrap;html=1;fontSize=12;glass=0;strokeWidth=1;shadow=0;" parent="WIyWlLk6GJQsqaUBKTNV-1" vertex="1">
          <mxGeometry x="160" y="80" width="120" height="40" as="geometry" />
        </mxCell>
        <mxCell id="WIyWlLk6GJQsqaUBKTNV-5" value="Yes" style="edgeStyle=orthogonalEdgeStyle;rounded=0;html=1;jettySize=auto;orthogonalLoop=1;fontSize=11;endArrow=block;endFill=0;endSize=8;strokeWidth=1;shadow=0;labelBackgroundColor=none;" parent="WIyWlLk6GJQsqaUBKTNV-1" source="WIyWlLk6GJQsqaUBKTNV-6" target="WIyWlLk6GJQsqaUBKTNV-7" edge="1">
          <mxGeometry y="10" relative="1" as="geometry">
            <mxPoint as="offset" />
          </mxGeometry>
        </mxCell>
        <mxCell id="x1WwE9KoJjIle77bkikw-55" style="edgeStyle=orthogonalEdgeStyle;rounded=0;orthogonalLoop=1;jettySize=auto;html=1;entryX=0.5;entryY=0;entryDx=0;entryDy=0;" parent="WIyWlLk6GJQsqaUBKTNV-1" source="WIyWlLk6GJQsqaUBKTNV-6" target="x1WwE9KoJjIle77bkikw-54" edge="1">
          <mxGeometry relative="1" as="geometry" />
        </mxCell>
        <mxCell id="x1WwE9KoJjIle77bkikw-56" value="No" style="edgeLabel;html=1;align=center;verticalAlign=middle;resizable=0;points=[];" parent="x1WwE9KoJjIle77bkikw-55" vertex="1" connectable="0">
          <mxGeometry x="-0.4533" y="2" relative="1" as="geometry">
            <mxPoint as="offset" />
          </mxGeometry>
        </mxCell>
        <mxCell id="WIyWlLk6GJQsqaUBKTNV-6" value="&lt;div&gt;Check below. Is start?&lt;/div&gt;" style="rhombus;whiteSpace=wrap;html=1;shadow=0;fontFamily=Helvetica;fontSize=12;align=center;strokeWidth=1;spacing=6;spacingTop=-4;" parent="WIyWlLk6GJQsqaUBKTNV-1" vertex="1">
          <mxGeometry x="170" y="220" width="100" height="80" as="geometry" />
        </mxCell>
        <mxCell id="x1WwE9KoJjIle77bkikw-3" style="edgeStyle=orthogonalEdgeStyle;rounded=0;orthogonalLoop=1;jettySize=auto;html=1;" parent="WIyWlLk6GJQsqaUBKTNV-1" source="WIyWlLk6GJQsqaUBKTNV-7" target="x1WwE9KoJjIle77bkikw-4" edge="1">
          <mxGeometry relative="1" as="geometry">
            <mxPoint x="380" y="350" as="targetPoint" />
          </mxGeometry>
        </mxCell>
        <mxCell id="WIyWlLk6GJQsqaUBKTNV-7" value="Check for next valid pipe and move to it." style="rounded=0;whiteSpace=wrap;html=1;fontSize=12;glass=0;strokeWidth=1;shadow=0;" parent="WIyWlLk6GJQsqaUBKTNV-1" vertex="1">
          <mxGeometry x="320" y="240" width="120" height="40" as="geometry" />
        </mxCell>
        <mxCell id="x1WwE9KoJjIle77bkikw-35" style="edgeStyle=orthogonalEdgeStyle;rounded=0;orthogonalLoop=1;jettySize=auto;html=1;exitX=1;exitY=0.5;exitDx=0;exitDy=0;entryX=0.5;entryY=0;entryDx=0;entryDy=0;" parent="WIyWlLk6GJQsqaUBKTNV-1" source="x1WwE9KoJjIle77bkikw-54" target="x1WwE9KoJjIle77bkikw-63" edge="1">
          <mxGeometry relative="1" as="geometry">
            <mxPoint x="100" y="520" as="targetPoint" />
            <mxPoint x="220" y="380" as="sourcePoint" />
          </mxGeometry>
        </mxCell>
        <mxCell id="x1WwE9KoJjIle77bkikw-36" value="For every compat pipe found" style="edgeLabel;html=1;align=center;verticalAlign=middle;resizable=0;points=[];" parent="x1WwE9KoJjIle77bkikw-35" vertex="1" connectable="0">
          <mxGeometry x="-0.01" y="-1" relative="1" as="geometry">
            <mxPoint y="-1" as="offset" />
          </mxGeometry>
        </mxCell>
        <mxCell id="x1WwE9KoJjIle77bkikw-5" style="rounded=0;orthogonalLoop=1;jettySize=auto;html=1;entryX=1;entryY=0;entryDx=0;entryDy=0;endArrow=block;endFill=0;" parent="WIyWlLk6GJQsqaUBKTNV-1" source="x1WwE9KoJjIle77bkikw-4" target="x1WwE9KoJjIle77bkikw-54" edge="1">
          <mxGeometry relative="1" as="geometry">
            <mxPoint x="280" y="360" as="targetPoint" />
          </mxGeometry>
        </mxCell>
        <mxCell id="x1WwE9KoJjIle77bkikw-7" style="edgeStyle=orthogonalEdgeStyle;rounded=0;orthogonalLoop=1;jettySize=auto;html=1;dashed=1;entryX=0;entryY=0.5;entryDx=0;entryDy=0;entryPerimeter=0;" parent="WIyWlLk6GJQsqaUBKTNV-1" source="x1WwE9KoJjIle77bkikw-4" target="x1WwE9KoJjIle77bkikw-12" edge="1">
          <mxGeometry relative="1" as="geometry">
            <mxPoint x="530" y="330" as="targetPoint" />
          </mxGeometry>
        </mxCell>
        <mxCell id="x1WwE9KoJjIle77bkikw-4" value="Create a new path and add pipe to it" style="rounded=0;whiteSpace=wrap;html=1;" parent="WIyWlLk6GJQsqaUBKTNV-1" vertex="1">
          <mxGeometry x="320" y="310" width="120" height="40" as="geometry" />
        </mxCell>
        <mxCell id="x1WwE9KoJjIle77bkikw-11" value="&lt;div&gt;Paths Array: empty&lt;/div&gt;&lt;div&gt;CurrentPath: empty&lt;/div&gt;&lt;div&gt;End reached: false&lt;/div&gt;&lt;div&gt;Open Pipe Fail: false&lt;/div&gt;" style="shape=cylinder3;whiteSpace=wrap;html=1;boundedLbl=1;backgroundOutline=1;size=15;" parent="WIyWlLk6GJQsqaUBKTNV-1" vertex="1">
          <mxGeometry x="600" y="70" width="180" height="110" as="geometry" />
        </mxCell>
        <mxCell id="x1WwE9KoJjIle77bkikw-12" value="&lt;div&gt;Paths Array: 0&lt;/div&gt;&lt;div&gt;CurrentPath: 0&lt;/div&gt;&lt;div&gt;End reached: false&lt;/div&gt;&lt;div&gt;Open Pipe Fail: false&lt;/div&gt;" style="shape=cylinder3;whiteSpace=wrap;html=1;boundedLbl=1;backgroundOutline=1;size=15;" parent="WIyWlLk6GJQsqaUBKTNV-1" vertex="1">
          <mxGeometry x="600" y="275" width="180" height="110" as="geometry" />
        </mxCell>
        <mxCell id="x1WwE9KoJjIle77bkikw-14" value="PathCompletion" style="swimlane;fontStyle=0;childLayout=stackLayout;horizontal=1;startSize=25;horizontalStack=0;resizeParent=1;resizeParentMax=0;resizeLast=0;collapsible=1;marginBottom=0;whiteSpace=wrap;html=1;" parent="WIyWlLk6GJQsqaUBKTNV-1" vertex="1">
          <mxGeometry x="780" y="95" width="140" height="60" as="geometry" />
        </mxCell>
        <mxCell id="x1WwE9KoJjIle77bkikw-23" value="&lt;div&gt;PathCompletion&lt;/div&gt;" style="swimlane;fontStyle=0;childLayout=stackLayout;horizontal=1;startSize=30;horizontalStack=0;resizeParent=1;resizeParentMax=0;resizeLast=0;collapsible=1;marginBottom=0;whiteSpace=wrap;html=1;" parent="WIyWlLk6GJQsqaUBKTNV-1" vertex="1">
          <mxGeometry x="780" y="300" width="140" height="60" as="geometry" />
        </mxCell>
        <mxCell id="x1WwE9KoJjIle77bkikw-24" value="&lt;div&gt;0, false&lt;/div&gt;" style="text;strokeColor=none;fillColor=none;align=left;verticalAlign=middle;spacingLeft=4;spacingRight=4;overflow=hidden;points=[[0,0.5],[1,0.5]];portConstraint=eastwest;rotatable=0;whiteSpace=wrap;html=1;" parent="x1WwE9KoJjIle77bkikw-23" vertex="1">
          <mxGeometry y="30" width="140" height="30" as="geometry" />
        </mxCell>
        <mxCell id="x1WwE9KoJjIle77bkikw-34" style="edgeStyle=orthogonalEdgeStyle;rounded=0;orthogonalLoop=1;jettySize=auto;html=1;entryX=0.5;entryY=0;entryDx=0;entryDy=0;" parent="WIyWlLk6GJQsqaUBKTNV-1" source="x1WwE9KoJjIle77bkikw-32" target="WIyWlLk6GJQsqaUBKTNV-6" edge="1">
          <mxGeometry relative="1" as="geometry" />
        </mxCell>
        <mxCell id="x1WwE9KoJjIle77bkikw-32" value="Start loop" style="shape=trapezoid;perimeter=trapezoidPerimeter;whiteSpace=wrap;html=1;fixedSize=1;" parent="WIyWlLk6GJQsqaUBKTNV-1" vertex="1">
          <mxGeometry x="160" y="150" width="120" height="40" as="geometry" />
        </mxCell>
        <mxCell id="x1WwE9KoJjIle77bkikw-40" style="edgeStyle=orthogonalEdgeStyle;rounded=0;orthogonalLoop=1;jettySize=auto;html=1;" parent="WIyWlLk6GJQsqaUBKTNV-1" source="x1WwE9KoJjIle77bkikw-37" target="x1WwE9KoJjIle77bkikw-41" edge="1">
          <mxGeometry relative="1" as="geometry">
            <mxPoint x="724" y="523" as="targetPoint" />
          </mxGeometry>
        </mxCell>
        <mxCell id="x1WwE9KoJjIle77bkikw-42" value="Yes" style="edgeLabel;html=1;align=center;verticalAlign=middle;resizable=0;points=[];" parent="x1WwE9KoJjIle77bkikw-40" vertex="1" connectable="0">
          <mxGeometry x="-0.075" y="1" relative="1" as="geometry">
            <mxPoint as="offset" />
          </mxGeometry>
        </mxCell>
        <mxCell id="x1WwE9KoJjIle77bkikw-114" style="edgeStyle=orthogonalEdgeStyle;rounded=0;orthogonalLoop=1;jettySize=auto;html=1;entryX=0.5;entryY=0;entryDx=0;entryDy=0;" parent="WIyWlLk6GJQsqaUBKTNV-1" source="x1WwE9KoJjIle77bkikw-37" target="x1WwE9KoJjIle77bkikw-111" edge="1">
          <mxGeometry relative="1" as="geometry" />
        </mxCell>
        <mxCell id="x1WwE9KoJjIle77bkikw-115" value="No" style="edgeLabel;html=1;align=center;verticalAlign=middle;resizable=0;points=[];" parent="x1WwE9KoJjIle77bkikw-114" vertex="1" connectable="0">
          <mxGeometry x="-0.1494" y="-4" relative="1" as="geometry">
            <mxPoint as="offset" />
          </mxGeometry>
        </mxCell>
        <mxCell id="x1WwE9KoJjIle77bkikw-37" value="&lt;div&gt;Has it been encountered already?&lt;/div&gt;" style="rhombus;whiteSpace=wrap;html=1;" parent="WIyWlLk6GJQsqaUBKTNV-1" vertex="1">
          <mxGeometry x="544" y="483" width="120" height="80" as="geometry" />
        </mxCell>
        <mxCell id="x1WwE9KoJjIle77bkikw-44" value="" style="edgeStyle=orthogonalEdgeStyle;rounded=0;orthogonalLoop=1;jettySize=auto;html=1;entryX=0;entryY=0.5;entryDx=0;entryDy=0;" parent="WIyWlLk6GJQsqaUBKTNV-1" source="x1WwE9KoJjIle77bkikw-41" target="x1WwE9KoJjIle77bkikw-47" edge="1">
          <mxGeometry relative="1" as="geometry">
            <mxPoint x="1087" y="523" as="targetPoint" />
          </mxGeometry>
        </mxCell>
        <mxCell id="x1WwE9KoJjIle77bkikw-46" value="Yes" style="edgeLabel;html=1;align=center;verticalAlign=middle;resizable=0;points=[];" parent="x1WwE9KoJjIle77bkikw-44" vertex="1" connectable="0">
          <mxGeometry x="0.05" y="2" relative="1" as="geometry">
            <mxPoint as="offset" />
          </mxGeometry>
        </mxCell>
        <mxCell id="x1WwE9KoJjIle77bkikw-50" value="" style="edgeStyle=orthogonalEdgeStyle;rounded=0;orthogonalLoop=1;jettySize=auto;html=1;entryX=0.5;entryY=0;entryDx=0;entryDy=0;" parent="WIyWlLk6GJQsqaUBKTNV-1" source="x1WwE9KoJjIle77bkikw-41" target="x1WwE9KoJjIle77bkikw-58" edge="1">
          <mxGeometry relative="1" as="geometry">
            <mxPoint x="827" y="610" as="targetPoint" />
          </mxGeometry>
        </mxCell>
        <mxCell id="x1WwE9KoJjIle77bkikw-51" value="No" style="edgeLabel;html=1;align=center;verticalAlign=middle;resizable=0;points=[];" parent="x1WwE9KoJjIle77bkikw-50" vertex="1" connectable="0">
          <mxGeometry x="-0.122" y="-1" relative="1" as="geometry">
            <mxPoint as="offset" />
          </mxGeometry>
        </mxCell>
        <mxCell id="x1WwE9KoJjIle77bkikw-41" value="&lt;div&gt;Is it on our current path?&lt;/div&gt;" style="rhombus;whiteSpace=wrap;html=1;" parent="WIyWlLk6GJQsqaUBKTNV-1" vertex="1">
          <mxGeometry x="937" y="483" width="90" height="80" as="geometry" />
        </mxCell>
        <mxCell id="x1WwE9KoJjIle77bkikw-47" value="Ignore it" style="rounded=0;whiteSpace=wrap;html=1;" parent="WIyWlLk6GJQsqaUBKTNV-1" vertex="1">
          <mxGeometry x="1087" y="498" width="80" height="50" as="geometry" />
        </mxCell>
        <mxCell id="x1WwE9KoJjIle77bkikw-104" value="" style="edgeStyle=orthogonalEdgeStyle;rounded=0;orthogonalLoop=1;jettySize=auto;html=1;" parent="WIyWlLk6GJQsqaUBKTNV-1" source="x1WwE9KoJjIle77bkikw-54" target="x1WwE9KoJjIle77bkikw-103" edge="1">
          <mxGeometry relative="1" as="geometry" />
        </mxCell>
        <mxCell id="x1WwE9KoJjIle77bkikw-106" value="After all compat pipes are resolved" style="edgeLabel;html=1;align=center;verticalAlign=middle;resizable=0;points=[];" parent="x1WwE9KoJjIle77bkikw-104" vertex="1" connectable="0">
          <mxGeometry x="-0.3091" y="-1" relative="1" as="geometry">
            <mxPoint as="offset" />
          </mxGeometry>
        </mxCell>
        <mxCell id="x1WwE9KoJjIle77bkikw-54" value="Check all 4 cardinal directions" style="rhombus;whiteSpace=wrap;html=1;" parent="WIyWlLk6GJQsqaUBKTNV-1" vertex="1">
          <mxGeometry x="160" y="330" width="120" height="90" as="geometry" />
        </mxCell>
        <mxCell id="x1WwE9KoJjIle77bkikw-93" style="edgeStyle=orthogonalEdgeStyle;rounded=0;orthogonalLoop=1;jettySize=auto;html=1;" parent="WIyWlLk6GJQsqaUBKTNV-1" source="x1WwE9KoJjIle77bkikw-58" target="x1WwE9KoJjIle77bkikw-82" edge="1">
          <mxGeometry relative="1" as="geometry" />
        </mxCell>
        <mxCell id="x1WwE9KoJjIle77bkikw-58" value="Path completion set to true" style="rounded=0;whiteSpace=wrap;html=1;" parent="WIyWlLk6GJQsqaUBKTNV-1" vertex="1">
          <mxGeometry x="922" y="600" width="120" height="40" as="geometry" />
        </mxCell>
        <mxCell id="x1WwE9KoJjIle77bkikw-59" value="&lt;div&gt;Paths Array: 0&lt;/div&gt;&lt;div&gt;CurrentPath: 0&lt;/div&gt;&lt;div&gt;End reached: false&lt;/div&gt;&lt;div&gt;Open Pipe Fail: false&lt;/div&gt;" style="shape=cylinder3;whiteSpace=wrap;html=1;boundedLbl=1;backgroundOutline=1;size=15;" parent="WIyWlLk6GJQsqaUBKTNV-1" vertex="1">
          <mxGeometry x="1274" y="565" width="180" height="110" as="geometry" />
        </mxCell>
        <mxCell id="x1WwE9KoJjIle77bkikw-60" value="&lt;div&gt;PathCompletion&lt;/div&gt;" style="swimlane;fontStyle=0;childLayout=stackLayout;horizontal=1;startSize=30;horizontalStack=0;resizeParent=1;resizeParentMax=0;resizeLast=0;collapsible=1;marginBottom=0;whiteSpace=wrap;html=1;" parent="WIyWlLk6GJQsqaUBKTNV-1" vertex="1">
          <mxGeometry x="1454" y="590" width="140" height="60" as="geometry" />
        </mxCell>
        <mxCell id="x1WwE9KoJjIle77bkikw-61" value="&lt;div&gt;0, true&lt;/div&gt;" style="text;strokeColor=none;fillColor=none;align=left;verticalAlign=middle;spacingLeft=4;spacingRight=4;overflow=hidden;points=[[0,0.5],[1,0.5]];portConstraint=eastwest;rotatable=0;whiteSpace=wrap;html=1;" parent="x1WwE9KoJjIle77bkikw-60" vertex="1">
          <mxGeometry y="30" width="140" height="30" as="geometry" />
        </mxCell>
        <mxCell id="x1WwE9KoJjIle77bkikw-62" style="edgeStyle=orthogonalEdgeStyle;rounded=0;orthogonalLoop=1;jettySize=auto;html=1;entryX=0;entryY=0.5;entryDx=0;entryDy=0;entryPerimeter=0;dashed=1;" parent="WIyWlLk6GJQsqaUBKTNV-1" source="x1WwE9KoJjIle77bkikw-58" target="x1WwE9KoJjIle77bkikw-59" edge="1">
          <mxGeometry relative="1" as="geometry" />
        </mxCell>
        <mxCell id="x1WwE9KoJjIle77bkikw-66" value="" style="edgeStyle=orthogonalEdgeStyle;rounded=0;orthogonalLoop=1;jettySize=auto;html=1;" parent="WIyWlLk6GJQsqaUBKTNV-1" source="x1WwE9KoJjIle77bkikw-63" target="x1WwE9KoJjIle77bkikw-65" edge="1">
          <mxGeometry relative="1" as="geometry" />
        </mxCell>
        <mxCell id="x1WwE9KoJjIle77bkikw-67" value="Yes" style="edgeLabel;html=1;align=center;verticalAlign=middle;resizable=0;points=[];" parent="x1WwE9KoJjIle77bkikw-66" vertex="1" connectable="0">
          <mxGeometry x="0.325" y="-2" relative="1" as="geometry">
            <mxPoint x="2" y="-8" as="offset" />
          </mxGeometry>
        </mxCell>
        <mxCell id="x1WwE9KoJjIle77bkikw-76" style="edgeStyle=orthogonalEdgeStyle;rounded=0;orthogonalLoop=1;jettySize=auto;html=1;entryX=0;entryY=0.5;entryDx=0;entryDy=0;" parent="WIyWlLk6GJQsqaUBKTNV-1" source="x1WwE9KoJjIle77bkikw-63" target="x1WwE9KoJjIle77bkikw-37" edge="1">
          <mxGeometry relative="1" as="geometry" />
        </mxCell>
        <mxCell id="x1WwE9KoJjIle77bkikw-78" value="No" style="edgeLabel;html=1;align=center;verticalAlign=middle;resizable=0;points=[];" parent="x1WwE9KoJjIle77bkikw-76" vertex="1" connectable="0">
          <mxGeometry x="-0.2" y="1" relative="1" as="geometry">
            <mxPoint as="offset" />
          </mxGeometry>
        </mxCell>
        <mxCell id="x1WwE9KoJjIle77bkikw-63" value="Is it the end node?" style="rhombus;whiteSpace=wrap;html=1;" parent="WIyWlLk6GJQsqaUBKTNV-1" vertex="1">
          <mxGeometry x="414" y="483" width="80" height="80" as="geometry" />
        </mxCell>
        <mxCell id="x1WwE9KoJjIle77bkikw-74" style="edgeStyle=orthogonalEdgeStyle;rounded=0;orthogonalLoop=1;jettySize=auto;html=1;entryX=0;entryY=0.5;entryDx=0;entryDy=0;" parent="WIyWlLk6GJQsqaUBKTNV-1" source="x1WwE9KoJjIle77bkikw-65" target="x1WwE9KoJjIle77bkikw-73" edge="1">
          <mxGeometry relative="1" as="geometry">
            <Array as="points">
              <mxPoint x="454" y="1037" />
            </Array>
          </mxGeometry>
        </mxCell>
        <mxCell id="x1WwE9KoJjIle77bkikw-75" value="No" style="edgeLabel;html=1;align=center;verticalAlign=middle;resizable=0;points=[];" parent="x1WwE9KoJjIle77bkikw-74" vertex="1" connectable="0">
          <mxGeometry x="-0.4" y="-2" relative="1" as="geometry">
            <mxPoint as="offset" />
          </mxGeometry>
        </mxCell>
        <mxCell id="x1WwE9KoJjIle77bkikw-79" style="edgeStyle=orthogonalEdgeStyle;rounded=0;orthogonalLoop=1;jettySize=auto;html=1;entryX=0;entryY=0.5;entryDx=0;entryDy=0;" parent="WIyWlLk6GJQsqaUBKTNV-1" source="x1WwE9KoJjIle77bkikw-65" target="x1WwE9KoJjIle77bkikw-82" edge="1">
          <mxGeometry relative="1" as="geometry">
            <mxPoint x="544" y="940" as="targetPoint" />
          </mxGeometry>
        </mxCell>
        <mxCell id="x1WwE9KoJjIle77bkikw-80" value="Yes" style="edgeLabel;html=1;align=center;verticalAlign=middle;resizable=0;points=[];" parent="x1WwE9KoJjIle77bkikw-79" vertex="1" connectable="0">
          <mxGeometry x="0.0894" relative="1" as="geometry">
            <mxPoint as="offset" />
          </mxGeometry>
        </mxCell>
        <mxCell id="x1WwE9KoJjIle77bkikw-65" value="Are there more than 1 paths?" style="rhombus;whiteSpace=wrap;html=1;" parent="WIyWlLk6GJQsqaUBKTNV-1" vertex="1">
          <mxGeometry x="414" y="900" width="80" height="80" as="geometry" />
        </mxCell>
        <mxCell id="x1WwE9KoJjIle77bkikw-73" value="Level won!" style="rounded=1;whiteSpace=wrap;html=1;" parent="WIyWlLk6GJQsqaUBKTNV-1" vertex="1">
          <mxGeometry x="664" y="1007" width="120" height="60" as="geometry" />
        </mxCell>
        <mxCell id="x1WwE9KoJjIle77bkikw-86" style="edgeStyle=orthogonalEdgeStyle;rounded=0;orthogonalLoop=1;jettySize=auto;html=1;entryX=0.5;entryY=0;entryDx=0;entryDy=0;" parent="WIyWlLk6GJQsqaUBKTNV-1" source="x1WwE9KoJjIle77bkikw-82" target="x1WwE9KoJjIle77bkikw-87" edge="1">
          <mxGeometry relative="1" as="geometry">
            <mxPoint x="1112" y="1022" as="targetPoint" />
          </mxGeometry>
        </mxCell>
        <mxCell id="x1WwE9KoJjIle77bkikw-90" value="No" style="edgeLabel;html=1;align=center;verticalAlign=middle;resizable=0;points=[];" parent="x1WwE9KoJjIle77bkikw-86" vertex="1" connectable="0">
          <mxGeometry x="-0.6354" y="-3" relative="1" as="geometry">
            <mxPoint as="offset" />
          </mxGeometry>
        </mxCell>
        <mxCell id="x1WwE9KoJjIle77bkikw-94" style="edgeStyle=orthogonalEdgeStyle;rounded=0;orthogonalLoop=1;jettySize=auto;html=1;entryX=1;entryY=0.5;entryDx=0;entryDy=0;" parent="WIyWlLk6GJQsqaUBKTNV-1" source="x1WwE9KoJjIle77bkikw-82" target="x1WwE9KoJjIle77bkikw-73" edge="1">
          <mxGeometry relative="1" as="geometry">
            <mxPoint x="729" y="1037" as="targetPoint" />
            <Array as="points">
              <mxPoint x="980" y="1037" />
            </Array>
          </mxGeometry>
        </mxCell>
        <mxCell id="x1WwE9KoJjIle77bkikw-95" value="Yes" style="edgeLabel;html=1;align=center;verticalAlign=middle;resizable=0;points=[];" parent="x1WwE9KoJjIle77bkikw-94" vertex="1" connectable="0">
          <mxGeometry x="-0.56" y="-1" relative="1" as="geometry">
            <mxPoint as="offset" />
          </mxGeometry>
        </mxCell>
        <mxCell id="x1WwE9KoJjIle77bkikw-82" value="Are all paths complete?" style="rhombus;whiteSpace=wrap;html=1;" parent="WIyWlLk6GJQsqaUBKTNV-1" vertex="1">
          <mxGeometry x="922" y="900" width="120" height="80" as="geometry" />
        </mxCell>
        <mxCell id="x1WwE9KoJjIle77bkikw-87" value="Go to the next path&#39;s first pipe" style="rounded=0;whiteSpace=wrap;html=1;" parent="WIyWlLk6GJQsqaUBKTNV-1" vertex="1">
          <mxGeometry x="1062" y="967" width="120" height="60" as="geometry" />
        </mxCell>
        <mxCell id="x1WwE9KoJjIle77bkikw-98" value="Add the pipe to the current path" style="rounded=0;whiteSpace=wrap;html=1;" parent="WIyWlLk6GJQsqaUBKTNV-1" vertex="1">
          <mxGeometry x="730" y="639" width="120" height="60" as="geometry" />
        </mxCell>
        <mxCell id="x1WwE9KoJjIle77bkikw-103" value="" style="rhombus;whiteSpace=wrap;html=1;" parent="WIyWlLk6GJQsqaUBKTNV-1" vertex="1">
          <mxGeometry x="160" y="475" width="120" height="90" as="geometry" />
        </mxCell>
        <mxCell id="x1WwE9KoJjIle77bkikw-123" style="edgeStyle=orthogonalEdgeStyle;rounded=0;orthogonalLoop=1;jettySize=auto;html=1;entryX=0.5;entryY=0;entryDx=0;entryDy=0;" parent="WIyWlLk6GJQsqaUBKTNV-1" source="x1WwE9KoJjIle77bkikw-111" target="x1WwE9KoJjIle77bkikw-120" edge="1">
          <mxGeometry relative="1" as="geometry" />
        </mxCell>
        <mxCell id="x1WwE9KoJjIle77bkikw-124" value="Yes" style="edgeLabel;html=1;align=center;verticalAlign=middle;resizable=0;points=[];" parent="x1WwE9KoJjIle77bkikw-123" vertex="1" connectable="0">
          <mxGeometry x="-0.24" y="2" relative="1" as="geometry">
            <mxPoint as="offset" />
          </mxGeometry>
        </mxCell>
        <mxCell id="x1WwE9KoJjIle77bkikw-132" style="edgeStyle=orthogonalEdgeStyle;rounded=0;orthogonalLoop=1;jettySize=auto;html=1;entryX=0;entryY=0.5;entryDx=0;entryDy=0;" parent="WIyWlLk6GJQsqaUBKTNV-1" source="x1WwE9KoJjIle77bkikw-111" target="x1WwE9KoJjIle77bkikw-98" edge="1">
          <mxGeometry relative="1" as="geometry" />
        </mxCell>
        <mxCell id="x1WwE9KoJjIle77bkikw-133" value="No" style="edgeLabel;html=1;align=center;verticalAlign=middle;resizable=0;points=[];" parent="x1WwE9KoJjIle77bkikw-132" vertex="1" connectable="0">
          <mxGeometry x="-0.0208" y="-1" relative="1" as="geometry">
            <mxPoint as="offset" />
          </mxGeometry>
        </mxCell>
        <mxCell id="x1WwE9KoJjIle77bkikw-111" value="Is this the second unencountered pipe found this loop?" style="rhombus;whiteSpace=wrap;html=1;" parent="WIyWlLk6GJQsqaUBKTNV-1" vertex="1">
          <mxGeometry x="534" y="629" width="140" height="80" as="geometry" />
        </mxCell>
        <mxCell id="x1WwE9KoJjIle77bkikw-120" value="&lt;div&gt;Add a new set to the path array and add this pipe to that set&lt;/div&gt;" style="rounded=0;whiteSpace=wrap;html=1;" parent="WIyWlLk6GJQsqaUBKTNV-1" vertex="1">
          <mxGeometry x="526" y="749" width="156" height="50" as="geometry" />
        </mxCell>
        <mxCell id="x1WwE9KoJjIle77bkikw-125" style="edgeStyle=orthogonalEdgeStyle;rounded=0;orthogonalLoop=1;jettySize=auto;html=1;exitX=0.5;exitY=1;exitDx=0;exitDy=0;" parent="WIyWlLk6GJQsqaUBKTNV-1" source="x1WwE9KoJjIle77bkikw-120" target="x1WwE9KoJjIle77bkikw-120" edge="1">
          <mxGeometry relative="1" as="geometry" />
        </mxCell>
        <mxCell id="x1WwE9KoJjIle77bkikw-126" value="&lt;div&gt;Paths Array: 1&lt;/div&gt;&lt;div&gt;CurrentPath: 0&lt;/div&gt;&lt;div&gt;End reached: false&lt;/div&gt;&lt;div&gt;Open Pipe Fail: false&lt;/div&gt;" style="shape=cylinder3;whiteSpace=wrap;html=1;boundedLbl=1;backgroundOutline=1;size=15;" parent="WIyWlLk6GJQsqaUBKTNV-1" vertex="1">
          <mxGeometry x="1274" y="700" width="180" height="110" as="geometry" />
        </mxCell>
        <mxCell id="x1WwE9KoJjIle77bkikw-127" value="&lt;div&gt;PathCompletion&lt;/div&gt;" style="swimlane;fontStyle=0;childLayout=stackLayout;horizontal=1;startSize=30;horizontalStack=0;resizeParent=1;resizeParentMax=0;resizeLast=0;collapsible=1;marginBottom=0;whiteSpace=wrap;html=1;" parent="WIyWlLk6GJQsqaUBKTNV-1" vertex="1">
          <mxGeometry x="1454" y="725" width="140" height="90" as="geometry" />
        </mxCell>
        <mxCell id="x1WwE9KoJjIle77bkikw-128" value="&lt;div&gt;0, true&lt;/div&gt;" style="text;strokeColor=none;fillColor=none;align=left;verticalAlign=middle;spacingLeft=4;spacingRight=4;overflow=hidden;points=[[0,0.5],[1,0.5]];portConstraint=eastwest;rotatable=0;whiteSpace=wrap;html=1;" parent="x1WwE9KoJjIle77bkikw-127" vertex="1">
          <mxGeometry y="30" width="140" height="30" as="geometry" />
        </mxCell>
        <mxCell id="x1WwE9KoJjIle77bkikw-130" value="1, false" style="text;strokeColor=none;fillColor=none;align=left;verticalAlign=middle;spacingLeft=4;spacingRight=4;overflow=hidden;points=[[0,0.5],[1,0.5]];portConstraint=eastwest;rotatable=0;whiteSpace=wrap;html=1;" parent="x1WwE9KoJjIle77bkikw-127" vertex="1">
          <mxGeometry y="60" width="140" height="30" as="geometry" />
        </mxCell>
        <mxCell id="x1WwE9KoJjIle77bkikw-129" style="rounded=0;orthogonalLoop=1;jettySize=auto;html=1;entryX=0;entryY=0.5;entryDx=0;entryDy=0;entryPerimeter=0;dashed=1;" parent="WIyWlLk6GJQsqaUBKTNV-1" source="x1WwE9KoJjIle77bkikw-120" target="x1WwE9KoJjIle77bkikw-126" edge="1">
          <mxGeometry relative="1" as="geometry" />
        </mxCell>
      </root>
    </mxGraphModel>
  </diagram>
</mxfile>
